# xmcd CD database file
#
# Track frame offsets:
#	150
#	22792
#	45707
#
# Disc length: 908 seconds
#
# Revision: 0
# Processed by: cddbd v1.5PL3 Copyright (c) Steve Scherf et al.
# Submitted via: CDex 1.50
#
DISCID=17038a03
DTITLE=aiko - ハチミツ
DYEAR=1900
DGENRE=JPop
TTITLE0=ハチミツ
TTITLE1=ひまわりになったら
TTITLE2=ハチミツ〜instrumental〜
EXTD=
EXTT0=
EXTT1=
EXTT2=
PLAYORDER=
